<?xml version="1.0" standalone="no"?>
<!DOCTYPE svg PUBLIC "-//W3C//DTD SVG 20010904//EN"
 "http://www.w3.org/TR/2001/REC-SVG-20010904/DTD/svg10.dtd">
<svg version="1.0" xmlns="http://www.w3.org/2000/svg"
 width="185.000000pt" height="220.000000pt" viewBox="0 0 185.000000 220.000000"
 preserveAspectRatio="xMidYMid meet">
<metadata>
Created by potrace 1.15, written by Peter Selinger 2001-2017
</metadata>
<g transform="translate(0.000000,220.000000) scale(0.100000,-0.100000)"
fill="#206caa" stroke="none">
<path d="M121 2116 c-52 -29 -50 -5 -51 -838 0 -582 3 -784 12 -803 22 -50 49
-55 270 -55 l202 0 181 -180 c100 -99 188 -180 196 -180 8 0 93 81 189 180
l175 180 203 0 c221 0 248 5 270 55 9 19 12 221 12 801 0 841 2 816 -55 842
-40 18 -1571 16 -1604 -2z m1048 -225 c143 -38 203 -82 215 -158 36 -235 41
-310 41 -583 l0 -285 -37 -3 -38 -3 0 -50 c0 -59 -31 -99 -76 -99 -47 0 -74
35 -74 97 l0 53 -264 0 -264 0 -4 -57 c-4 -43 -10 -61 -28 -75 -30 -24 -69
-23 -97 4 -18 17 -23 32 -23 75 l0 53 -40 0 -40 0 0 274 c0 237 3 299 25 455
15 107 31 191 40 205 29 44 162 97 300 119 74 12 281 -1 364 -22z"/>
<path d="M707 1807 c-13 -35 6 -37 229 -35 211 3 219 4 219 23 0 19 -8 20
-221 23 -180 2 -223 0 -227 -11z"/>
<path d="M582 1687 c-12 -14 -41 -203 -45 -287 l-2 -55 391 -3 c316 -2 393 0
402 11 9 10 6 51 -9 158 -11 79 -24 154 -29 167 l-10 22 -344 0 c-265 0 -346
-3 -354 -13z"/>
</g>
</svg>
